<svg xmlns="http://www.w3.org/2000/svg" xmlns:xlink="http://www.w3.org/1999/xlink" version="1.1" id="layer" x="0px" y="0px" style="enable-background:new -153 -46 652 652;" xml:space="preserve" viewBox="-131.5 243.6 600 63.8">
<style type="text/css">
	.st0{fill:#006998;}
</style>
<path class="st0" d="M-131.5,305.9v-4.2h9.8v-52.4h-9.8v-4.2h39.1v4.2h-10.8v52.4h2.3c12.8,0,23.1-3.6,23.1-17.4v-2.6h4.8v24.2  H-131.5z"/>
<path class="st0" d="M2.3,301.7l-29.1-56.5h-7.3l-25,51.3c-1.4,2.9-3.7,5.2-8.3,5.2h-2v4.2H-46v-4.2h-4.3c-2.4,0-4.6-0.3-4.6-3.2  c0-1,0.5-1.9,0.9-2.6l3.4-7h25.4l6.4,12.8h-9.3v4.2h38.7v-4.2H2.3z M-48.6,284.8l10.2-20.6h0.8l10.2,20.6H-48.6z"/>
<path class="st0" d="M47.7,305.9v-4.2h1.6h1.2c3.4,0,6.6-0.9,6.6-6.2v-39.4c0-4.1-3.7-6.8-7.4-6.8h-1.7v-4.2h28.2l31.2,35.9h0.2  v-26.8c0-3.3-2.6-4.9-7.5-4.9h-2.9v-4.2h24.2v4.2H119c-5,0-7,2.5-7,4.6v51.9h-8.1L61.6,257h-0.2v39c0,4.9,2.4,5.8,8.6,5.8h1.9v4.2  H47.7z"/>
<path class="st0" d="M192,301.7l-29.1-56.5h-7.3l-25.1,51.3c-1.4,2.9-3.7,5.2-8.3,5.2h-2v4.2h23.5v-4.2h-4.3c-2.4,0-4.6-0.3-4.6-3.2  c0-1,0.5-1.9,0.8-2.6l3.4-7h25.4l6.3,12.8h-9.4v4.2h38.7v-4.2H192z M141.1,284.8l10.2-20.6h0.9l10.2,20.6H141.1z"/>
<path class="st0" d="M260.6,245.2v21.5h-4.8c-1.8-8.8-6.7-19-18.4-19c-14.8,0-17.8,12.5-17.8,27.9c0,14.7,2.7,27.4,17.5,27.4  c11.4,0,19.2-7.9,19.2-18.7h5.1c0,14.8-11,23.1-25.3,23.1c-18.3,0-36.8-14.1-36.8-31.8c0-17.4,17.9-32,35.3-32  c12.9,0,17.5,5.1,19.9,5.1c2.4,0,2.9-1.7,3.1-3.5H260.6z"/>
<polygon class="st0" points="270.4,305.9 270.4,301.7 280.2,301.7 280.2,249.3 270.4,249.3 270.4,245.1 308.5,245.1 308.5,249.3   298.7,249.3 298.7,301.7 308.5,301.7 308.5,305.9 "/>
<path class="st0" d="M352.7,243.6c-18,0-36.2,14-36.2,31.9c0,18,18.3,31.9,36.2,31.9c17.9,0,36.4-14,36.4-31.9  C389.1,257.6,370.6,243.6,352.7,243.6 M352.8,303.3c-14.3,0-16.1-13.7-16.1-27.8c0-14.1,1.9-27.8,16.1-27.8  c14.3,0,16.2,13.6,16.2,27.8C368.9,289.7,367.1,303.3,352.8,303.3"/>
<path class="st0" d="M394.8,305.9v-4.2h1.6h1.2c3.4,0,6.6-0.9,6.6-6.2v-39.4c0-4.1-3.8-6.8-7.4-6.8h-1.7v-4.2h28.2l31.2,35.9h0.2  v-26.8c0-3.3-2.6-4.9-7.5-4.9h-2.9v-4.2h24.2v4.2h-2.4c-5,0-7.1,2.5-7.1,4.6v51.9h-8L408.7,257h-0.2v39c0,4.9,2.4,5.8,8.6,5.8h1.9  v4.2H394.8z"/>
</svg>