<svg version="1.1" id="Livello_1" xmlns="http://www.w3.org/2000/svg" xmlns:xlink="http://www.w3.org/1999/xlink" x="0px" y="0px" viewBox="0 0 389.6 146.9" style="enable-background:new 0 0 389.6 146.9;" xml:space="preserve">
 <style type="text/css">
  .st0{fill:#000099;}
	.st1{fill:#FFFFFF;}
 </style>
 <g>
  <rect class="st0" width="151" height="146.9">
  </rect>
  <g>
   <path class="st1" d="M33.9,59.5c5.1,0,10.8,1,10.8,7.5c0,6.5-5.7,7.5-10.8,7.5h-1.5V59.5H33.9 M66.6,107.5L47.8,83
			c8.5-1.5,13.1-8.7,13.1-16.9c0-12.8-9-18.4-20.8-18.4H16.8v59.9h15.6v-23h0.2l14.7,23L66.6,107.5L66.6,107.5z M134.3,107.5h-14.4
			V66.8h14.4V107.5z M127.1,59.2c-4.4,0-8.1-3.7-8.1-8.1c0-4.4,3.7-8.1,8.1-8.1c4.4,0,8.1,3.7,8.1,8.1
			C135.2,55.6,131.5,59.2,127.1,59.2 M111.5,107.5H97.1V103h-0.2c-2.5,4-7.5,5.9-12.3,5.9c-12.1,0-20.6-10.1-20.6-21.8
			c0-11.7,8.3-21.7,20.4-21.7c4.7,0,9.6,1.7,12.6,5.3v-4h14.4V107.5z M88.3,78c-5.9,0-9.3,4.2-9.3,9.2c0,5.2,3.4,9.1,9.3,9.1
			s9.3-4,9.3-9.1C97.6,82.2,94.2,78,88.3,78">
   </path>
  </g>
  <g>
   <polygon class="st0" points="194.7,94.9 194.7,107.4 168.4,107.4 168.4,94.9 174.2,94.9 174.2,59.3 168.4,59.3 168.4,46.9 
			187.6,46.9 209.9,80.5 209.9,59.3 203.9,59.3 203.9,46.9 230.1,46.9 230.1,59.3 224.7,59.3 224.7,107.4 211.7,107.4 189.1,73.7 
			189.1,94.9 		">
   </polygon>
   <path class="st0" d="M254,108.5c-7.1,0-12.9-2.2-17.8-7.1c-4.8-4.7-7.1-10.6-7.1-17.4c0-6.8,2.5-12.8,7.1-17.4
			c4.7-4.6,11-7.1,17.8-7.1c8.6,0,16.2,4.1,20.8,10.9c2.7,4,4,8.5,4,13.7c0,1.7-0.2,3.5-0.4,5.3H244c1.1,4.1,5,6.9,10,6.9
			c2.6,0,4.9-0.8,7-2.6h16.1C272.9,103.1,264.3,108.5,254,108.5 M264.5,79.3c-1.4-5.1-5.1-7.9-10.5-7.9c-4.9,0-8.8,2.9-10.4,7.9
			H264.5z">
   </path>
   <polygon class="st0" points="293.4,107.4 282.4,72.9 278.3,72.9 278.3,60.7 299.2,60.7 299.2,72.9 295.4,72.9 300.5,91.2 
			308.5,60.7 319.9,60.7 328,91.2 333,72.9 329.3,72.9 329.3,60.7 350.1,60.7 350.1,72.9 346,72.9 335.1,107.4 322,107.4 
			314.2,80.5 306.5,107.4 		">
   </polygon>
   <path class="st0" d="M364.6,93c0.2,3.3,2,5.1,5.4,5.1c3.2,0,4.9-1.5,4.9-4.1c0-3.7-3.9-3.6-10.1-5.4c-8.7-2.5-12.8-7-12.8-14.5
			c0-8.8,6.4-14.7,16.2-14.7c3.7,0,6.7,0.8,9.6,3v-2h9.7v13.3h-12.3c-0.5-3.1-1.7-4.3-4.3-4.3c-2.8,0-4.4,1.6-4.4,3.5
			c0,3.4,2.8,4.2,8,5.4c10.3,2.6,15.3,5.9,15.3,14.8c0,9.1-7,15.3-17.1,15.3c-4,0-7.3-1.1-10.3-3.6v2.4H352V93L364.6,93L364.6,93z">
   </path>
  </g>
 </g>
</svg>