<svg class="svg-icon" style="width: 1em; height: 1em;vertical-align: middle;fill: currentColor;overflow: hidden;" viewBox="0 0 1024 1024" version="1.1" xmlns="http://www.w3.org/2000/svg"><path d="M938.666667 925.013333h-853.333334C37.546667 925.013333 0 887.466667 0 839.68v-512c0-47.786667 37.546667-85.333333 85.333333-85.333333h853.333334c47.786667 0 85.333333 37.546667 85.333333 85.333333v512c0 47.786667-37.546667 85.333333-85.333333 85.333333z m-853.333334-648.533333c-27.306667 0-51.2 23.893333-51.2 51.2v512c0 27.306667 23.893333 51.2 51.2 51.2h853.333334c27.306667 0 51.2-23.893333 51.2-51.2v-512c0-27.306667-23.893333-51.2-51.2-51.2h-853.333334z" fill="" /><path d="M597.333333 856.746667h-409.6c-64.853333 0-119.466667-54.613333-119.466666-119.466667v-307.2c0-64.853333 54.613333-119.466667 119.466666-119.466667h409.6c64.853333 0 119.466667 54.613333 119.466667 119.466667v307.2c0 68.266667-54.613333 119.466667-119.466667 119.466667z m-409.6-512c-47.786667 0-85.333333 37.546667-85.333333 85.333333v307.2c0 47.786667 37.546667 85.333333 85.333333 85.333333h409.6c47.786667 0 85.333333-37.546667 85.333334-85.333333v-307.2c0-47.786667-37.546667-85.333333-85.333334-85.333333h-409.6zM870.4 447.146667h-102.4c-10.24 0-17.066667-6.826667-17.066667-17.066667s6.826667-17.066667 17.066667-17.066667h102.4c10.24 0 17.066667 6.826667 17.066667 17.066667s-6.826667 17.066667-17.066667 17.066667zM870.4 515.413333h-102.4c-10.24 0-17.066667-6.826667-17.066667-17.066666s6.826667-17.066667 17.066667-17.066667h102.4c10.24 0 17.066667 6.826667 17.066667 17.066667s-6.826667 17.066667-17.066667 17.066666zM870.4 583.68h-102.4c-10.24 0-17.066667-6.826667-17.066667-17.066667s6.826667-17.066667 17.066667-17.066666h102.4c10.24 0 17.066667 6.826667 17.066667 17.066666s-6.826667 17.066667-17.066667 17.066667zM870.4 856.746667h-102.4c-10.24 0-17.066667-6.826667-17.066667-17.066667v-170.666667c0-10.24 6.826667-17.066667 17.066667-17.066666h102.4c10.24 0 17.066667 6.826667 17.066667 17.066666v170.666667c0 10.24-6.826667 17.066667-17.066667 17.066667z m-85.333333-34.133334h68.266666v-136.533333h-68.266666v136.533333zM146.773333 1020.586667c-10.24 0-17.066667-6.826667-17.066666-17.066667v-85.333333c0-10.24 6.826667-17.066667 17.066666-17.066667s17.066667 6.826667 17.066667 17.066667v85.333333c0 10.24-10.24 17.066667-17.066667 17.066667zM870.4 1020.586667c-10.24 0-17.066667-6.826667-17.066667-17.066667v-85.333333c0-10.24 6.826667-17.066667 17.066667-17.066667s17.066667 6.826667 17.066667 17.066667v85.333333c0 10.24-6.826667 17.066667-17.066667 17.066667zM460.8 276.48c-3.413333 0-10.24 0-13.653333-3.413333l-238.933334-238.933334C204.8 27.306667 204.8 17.066667 208.213333 10.24s17.066667-6.826667 23.893334 0l225.28 225.28L682.666667 10.24c6.826667-6.826667 17.066667-6.826667 23.893333 0s6.826667 17.066667 0 23.893333l-238.933333 238.933334c3.413333 3.413333-3.413333 3.413333-6.826667 3.413333z" fill="" /></svg>