<svg xmlns="http://www.w3.org/2000/svg" viewBox="0 0 300 300.02"><path d="M0 0h300v300.02H0z" fill="#014f9d"/><path d="M71.641 76.31l-10.324 2.41c.458 1.598.766 5.185.766 8.81v44.599h10.24v-27.646c2.252-2.047 5.476-3.543 7.97-3.543 2.878 0 3.924 1.43 3.924 5.271v25.918h9.867v-26.965c0-3.71-.214-4.99-.97-7.168-1.215-3.392-5.13-5.502-10.025-5.502-3.925 0-8.29 1.673-10.924 4.158 0-.457.158-2.048.158-3.244v-7.69c0-3.69-.233-7.296-.682-9.407zm-52.555 3.46v8.745h12.791v43.607h10.707V88.515h12.502l1.729-8.744h-37.73zm98.634 12.946c-5.13 0-8.97 1.664-12.129 5.215-3.401 3.765-4.82 8.353-4.82 15.305 0 12.1 7.146 19.939 18.229 19.939 5.41 0 10.082-1.728 14.539-5.334l-3.924-6.037c-3.093 2.57-6.336 3.84-9.793 3.84-5.195 0-8.12-3.383-8.12-9.335v-.308h22.286v-2.336c0-8.064-1.58-13.25-5.112-16.865-2.504-2.56-6.727-4.084-11.156-4.084zm.148 7.393c2.028 0 3.459.765 4.44 2.269.897 1.42 1.205 2.934 1.205 5.793v.45h-11.68v-.141c0-5.345 2.195-8.372 6.035-8.372zm74.49 45.51l-10.316 2.412c.449 1.597.748 5.195.748 8.82v44.588h10.25v-27.64c2.243-2.045 5.486-3.55 7.981-3.55 2.868 0 3.914 1.44 3.914 5.262v25.928h9.857v-26.975c0-3.691-.223-4.963-.97-7.168-1.206-3.373-5.122-5.494-10.018-5.494-3.925 0-8.278 1.663-10.922 4.148 0-.44.158-2.027.158-3.242v-7.68c0-3.69-.243-7.289-.682-9.41zm-173.65 3.46l12.512 52.803h11.97l4.363-21.453c1.598-7.69 2.504-15.062 2.504-15.062.13 1.42.897 8.194 2.466 15.201l4.682 21.314h11.521l12.65-52.803H70.304l-4.306 19.88c-1.056 5.13-2.71 15.753-2.85 17.416 0 0-1.28-8.969-2.252-13.865l-4.841-23.436h-11.53l-4.661 21.174c-1.58 7.223-2.487 14.69-2.702 16.717 0 0-.68-7.448-2.793-17.25l-4.513-20.64H18.7zm150.54 2.122l-10.25 2.558c-.373 2.85-.373 5.355-.373 9.111h-3.84v6.915h3.84v20.949c0 3.522.074 4.278.672 5.95 1.206 3.402 5.28 5.653 10.4 5.653 2.635 0 5.26-.531 8.203-1.746l-1.279-6.008c-1.803.514-2.71.746-3.617.746-3.467 0-4.363-1.28-4.363-6.176v-19.369h6.476l2.569-6.914h-9.045c0-3.924.224-8.147.607-11.67zm98.533 10.76l-9.035 2.43c.832 2.176 1.43 6.1 1.43 11.286v25.77h10.109v-27.273c1.86-2.186 3.905-3.232 6.176-3.232 1.121 0 1.936.223 2.935.746l2.774-8.895c-1.58-.682-2.26-.832-3.774-.832-1.121 0-2.467.243-3.299.608-1.896.84-4.29 2.943-5.728 4.896-.159-2.168-.682-3.915-1.588-5.504zm-131.52.082c-3.54 0-6.782.671-10.539 2.269-2.728 1.112-4.215 1.859-6.261 3.148l4.299 7.252c4.139-2.793 7.913-4.392 11.146-4.392 3.69 0 4.503 1.44 4.503 5.719v1.588c-.812-.066-1.495-.065-2.252-.065-12.268 0-18.52 4.205-18.52 13.25 0 7.68 4.664 12.053 13.27 12.053 3.15 0 5.859-.756 7.737-2.101.757-.533 1.579-1.31 2.336-2.047.98 1.971 3.091 3.69 5.427 4.672l5.346-6.176c-2.943-2.196-3.607-3.767-3.607-7.897v-.672l.214-12.97c.075-4.159-.148-5.353-.662-6.932-1.513-4.29-5.971-6.7-12.438-6.7zm-38.477.004c-5.12 0-8.952 1.652-12.129 5.203-3.382 3.765-4.812 8.344-4.812 15.287 0 12.119 7.158 19.959 18.22 19.959 5.43 0 10.102-1.73 14.55-5.336l-3.926-6.045c-3.093 2.56-6.315 3.84-9.79 3.84-5.187 0-8.13-3.382-8.13-9.325v-.328h22.303v-2.316c0-8.045-1.578-13.26-5.138-16.885-2.477-2.551-6.7-4.055-11.146-4.055zm139.14 0c-5.12 0-8.961 1.652-12.129 5.203-3.382 3.765-4.812 8.344-4.812 15.287 0 12.119 7.158 19.959 18.22 19.959 5.43 0 10.102-1.73 14.54-5.336l-3.916-6.045c-3.093 2.56-6.334 3.84-9.8 3.84-5.196 0-8.13-3.382-8.13-9.325v-.328h22.295v-2.316c0-8.045-1.58-13.26-5.111-16.885-2.495-2.551-6.709-4.055-11.156-4.055zm-138.98 7.37c2.037 0 3.458.758 4.457 2.272.897 1.43 1.196 2.934 1.196 5.793v.447h-11.67v-.138c0-5.345 2.168-8.373 6.017-8.373zm139.13 0c2.028 0 3.467.758 4.448 2.272.897 1.43 1.207 2.934 1.207 5.793v.447h-11.682v-.138c0-5.345 2.187-8.373 6.027-8.373zm-98.244 15.144h.448l-.159 8.287c-1.504 1.644-3.381 2.636-5.26 2.636-2.569 0-4.466-2.038-4.466-5.046 0-4.588 2.42-5.877 9.437-5.877zM73.92 216.1l-10.336 2.41c.449 1.588.758 5.197.758 8.822v44.588h10.24v-27.639c2.252-2.046 5.505-3.54 7.99-3.54 2.86 0 3.905 1.428 3.905 5.259v25.92h9.877v-26.957c0-3.71-.224-4.97-.99-7.166-1.215-3.392-5.113-5.504-10.018-5.504-3.916 0-8.287 1.663-10.912 4.158 0-.458.148-2.046.148-3.252v-7.662c0-3.71-.232-7.316-.662-9.437zm196.04.08l-10.314 2.338c.374 3.475.514 6.567.514 11.604V258.9c0 5.494.15 6.699.916 8.642 1.215 3.252 4.661 5.28 8.969 5.28 2.177 0 4.281-.375 6.01-1.047l-1.729-6.026c-.523.14-.74.14-1.123.14-.822 0-1.662-.383-2.045-1.046-.588-1.056-.664-1.963-.664-8.588v-30.06c0-5.4-.16-7.905-.533-10.017zm-225.71 2.26c-8.437 0-15.968 4.523-20.05 12.13-2.393 4.512-3.532 9.717-3.532 16.267 0 7.69 2.11 14.017 6.334 18.754 4.289 4.906 9.868 7.223 17.1 7.223 5.962 0 10.39-1.504 14.54-4.887l-4.823-6.617c-3.084 2.476-5.887 3.373-8.961 3.373-4.532 0-7.988-2.027-10.1-5.877-1.588-2.86-2.178-6.858-2.178-14.006 0-6.092.906-10.474 2.934-13.482 1.878-2.794 5.336-4.514 8.887-4.514 2.934 0 5.719.981 8.363 2.934l4.736-7.14c-2.869-2.485-8.065-4.148-13.26-4.148zm106.37 13.93l-8.95 2.559c.896 2.57 1.325 5.728 1.325 9.045v27.947h10.102v-27.264c2.355-2.093 4.98-3.467 7.008-3.467 2.635 0 3.39 1.28 3.39 5.643v25.088h9.952v-28.17c0-2.411-.233-4.065-.766-5.494-1.196-3.327-4.961-5.579-9.26-5.579-2.26 0-4.896.599-6.923 1.645-1.663.916-2.943 1.83-4.438 2.867 0-1.579-.533-3.241-1.44-4.82zm39.328 0l-8.978 2.559c.897 2.57 1.344 5.728 1.344 9.045v27.947h10.102v-27.264c2.326-2.093 4.97-3.467 6.998-3.467 2.635 0 3.392 1.28 3.392 5.643v25.088h9.942v-28.17c0-2.411-.207-4.065-.758-5.494-1.196-3.327-4.97-5.579-9.268-5.579-2.233 0-4.877.599-6.923 1.645-1.645.916-2.936 1.83-4.44 2.867 0-1.579-.522-3.241-1.41-4.82zm-69.129.15c-3.55 0-6.783.673-10.549 2.27-2.71 1.122-4.223 1.861-6.27 3.15l4.31 7.24c4.13-2.793 7.894-4.38 11.137-4.38 3.7 0 4.53 1.429 4.53 5.736v1.57c-.83-.074-1.512-.076-2.26-.076-12.277 0-18.538 4.225-18.538 13.27 0 7.672 4.673 12.043 13.26 12.043 3.168 0 5.876-.737 7.764-2.101.747-.533 1.579-1.28 2.336-2.047.971 1.962 3.084 3.7 5.42 4.681l5.353-6.185c-2.943-2.186-3.615-3.756-3.615-7.904v-.674l.215-12.97c.093-4.12-.15-5.343-.682-6.913-1.495-4.308-5.954-6.71-12.41-6.71zm115.87.007c-5.12 0-8.961 1.643-12.129 5.203-3.382 3.756-4.812 8.354-4.812 15.297 0 12.11 7.148 19.949 18.22 19.949 5.43 0 10.092-1.73 14.54-5.346l-3.924-6.035c-3.083 2.56-6.317 3.85-9.783 3.85-5.195 0-8.139-3.401-8.139-9.334v-.309h22.295v-2.336c0-8.045-1.58-13.25-5.12-16.857-2.477-2.57-6.71-4.082-11.147-4.082zm.141 7.37c2.046 0 3.474.768 4.455 2.272.907 1.43 1.197 2.944 1.197 5.803v.447h-11.67v-.138c0-5.354 2.187-8.383 6.018-8.383zm-113.46 15.134h.467l-.158 8.287c-1.505 1.672-3.384 2.644-5.272 2.644-2.57 0-4.428-2.026-4.428-5.044 0-4.579 2.393-5.887 9.391-5.887z" fill="#fff" fill-rule="evenodd"/></svg>